<?xml version="1.0" standalone="no"?>
<!DOCTYPE svg PUBLIC "-//W3C//DTD SVG 20010904//EN"
 "http://www.w3.org/TR/2001/REC-SVG-20010904/DTD/svg10.dtd">
<svg version="1.0" xmlns="http://www.w3.org/2000/svg"
 width="500.000000pt" height="500.000000pt" viewBox="0 0 500.000000 500.000000"
 preserveAspectRatio="xMidYMid meet">
<metadata>
Created by potrace 1.11, written by Peter Selinger 2001-2013
</metadata>
<g transform="translate(0.000000,500.000000) scale(0.100000,-0.100000)"
fill="#000000" stroke="none">
<path d="M2378 4085 c-2 -1 -25 -5 -53 -9 -391 -48 -738 -276 -854 -561 -33
-84 -47 -150 -50 -239 l-2 -76 63 -1 c35 0 111 0 171 0 119 0 108 8 109 -76
l1 -38 -129 -2 c-71 -1 -148 -2 -171 -3 -36 0 -43 -3 -43 -20 0 -23 -12 -22
193 -22 135 -1 147 -3 148 -20 3 -61 2 -89 -3 -94 -3 -3 -81 -5 -173 -5 -166
0 -166 0 -163 -22 3 -22 5 -22 173 -22 l169 0 -1 -54 c-1 -30 -6 -57 -12 -60
-5 -3 -82 -6 -171 -5 -157 0 -161 0 -158 -20 3 -20 9 -21 171 -21 126 0 167
-3 168 -12 7 -115 17 -110 -176 -109 l-166 1 3 -555 c4 -533 5 -557 24 -610
87 -230 231 -384 468 -500 194 -95 366 -134 596 -134 215 -1 349 24 534 97
265 104 489 325 546 537 7 25 15 54 18 65 11 36 12 1825 1 1885 -43 230 -229
449 -487 575 -120 58 -221 89 -392 121 -35 6 -346 15 -352 9z"/>
</g>
</svg>
